<?xml version="1.0" encoding="utf-8"?>
<!DOCTYPE svg PUBLIC "-//W3C//DTD SVG 1.1//EN" "http://www.w3.org/Graphics/SVG/1.1/DTD/svg11.dtd">
<svg version="1.1" id="Layer_1" xmlns="http://www.w3.org/2000/svg" xmlns:xlink="http://www.w3.org/1999/xlink" x="0px" y="0px"
	 width="512px" height="729.514px" viewBox="0 0 512 729.514">
<g>
	<path d="M239.377,718.276c3.835,4.259,7.537,6.979,11.093,8.896c0.045,0.045,0.146,0.045,0.19,0.089
		c2.464,1.294,4.883,2.252,7.168,2.252c2.286,0,4.705-0.958,7.169-2.252c0.045-0.044,0.134-0.044,0.179-0.089
		c3.578-1.918,7.28-4.638,11.115-8.896c0,0,212.229-230.849,233.568-430.858C511.131,277.094,512,266.636,512,256
		C512,114.621,397.367,0,256,0C114.621,0,0,114.621,0,256c0,10.825,0.87,21.372,2.185,31.83
		C24.06,487.74,239.377,718.276,239.377,718.276z M256,91.331c90.796,0,164.669,73.884,164.669,164.669S346.796,420.669,256,420.669
		c-90.785,0-164.669-73.884-164.669-164.669S165.215,91.331,256,91.331z"/>
</g>
</svg>

